<svg xmlns="http://www.w3.org/2000/svg" width="75.833" height="50" viewBox="0 0 75.833 50">
  <g id="compact" transform="translate(0 -0.812)">
    <path id="Path_534" data-name="Path 534" d="M943.97,1247.711l8.645-22.875s8.131,2.025,7.1,5-5.763,16.8-7.1,19.3S943.97,1247.711,943.97,1247.711Z" transform="translate(-943.97 -1217.085)" fill="#fff"/>
    <path id="Path_536" data-name="Path 536" d="M0,19.586,9.6,0s7.61,1.115,6.452,3.658c-.5,1.091-.132,2.592-2.111,6.72a88.216,88.216,0,0,1-5.8,9.792C6.712,22.34,0,19.586,0,19.586Z" transform="translate(75.833 16.173) rotate(137)" fill="#fff"/>
    <path id="Path_535" data-name="Path 535" d="M977.52,1239.678l-6.54,18.594,2.32.349,4.22,3.693a3.556,3.556,0,0,1,3.344-.952,3.409,3.409,0,0,1,2.625,2.381,5.539,5.539,0,0,1,3.5-1.08c1.921.163,2.676,2.867,2.676,2.867a3.06,3.06,0,0,1,3.5,0,2.961,2.961,0,0,1,1.029,3.455s2.45.171,3.293,1.906,0,4.17,0,4.17a5.353,5.353,0,0,0,4,.454,2.5,2.5,0,0,0,1.862-2.837s2.522,1.393,3.862,0,.769-3.693.769-3.693,2.689.422,3.616-1.365-.322-4.83-.322-4.83,3.191,2.74,4.94,0,1.029-5.123-.72-6.076-16.364-12.271-19.554-12.152-5.558,7.506-8.954,7.387-5.146-3.1-3.5-4.527,3.5-6.91,3.5-6.91a13.793,13.793,0,0,1-5.352.477A9.7,9.7,0,0,1,977.52,1239.678Z" transform="translate(-961.053 -1225.612)" fill="#fff"/>
    <path id="Path_537" data-name="Path 537" d="M1045,1243.345a36.564,36.564,0,0,1-3.61-9.2c-.823-4.289-2.051-9.027-2.051-9.027s-3.339,1.012-5.957,1.787-5.392.149-8.737,0-5.6-.5-6.465,0c-1.647.953-2.148,2.613-4.31,3.209s-2.443,2.951-3.657,5.488-2.676,4.17-2.676,4.766.271,2.424,2.947,1.828,5.018-5.76,6.213-6.594,2.861-2.147,6.941.531c2.862,1.2,4.577,3.044,6.881,4.582a72.486,72.486,0,0,0,7.186,5.569c1.565.995,2.356,1.735,3.106,1.41S1045,1243.345,1045,1243.345Z" transform="translate(-984.174 -1217.246)" fill="#fff"/>
    <path id="Path_539" data-name="Path 539" d="M2.767.011c1.582.1,2.91.924,2.965,1.832S4.55,3.4,2.967,3.3.057,2.375,0,1.467,1.184-.093,2.767.011Z" transform="matrix(0.866, 0.5, -0.5, 0.866, 17.797, 36.313)" fill="#fff"/>
    <path id="Path_540" data-name="Path 540" d="M4.094,0C6.311-.063,8.072.915,8.029,2.189S6.153,4.549,3.936,4.616-.043,3.7,0,2.43,1.877.07,4.094,0Z" transform="translate(27.874 38.761) rotate(103)" fill="#fff"/>
    <path id="Path_541" data-name="Path 541" d="M4.094,0C6.311-.063,8.072.915,8.029,2.189S6.153,4.549,3.936,4.616-.043,3.7,0,2.43,1.877.07,4.094,0Z" transform="translate(32.652 41.314) rotate(103)" fill="#fff"/>
    <path id="Path_542" data-name="Path 542" d="M2.928,0c1.58-.047,2.831.781,2.795,1.85S4.375,3.826,2.8,3.874-.036,3.093,0,2.024,1.348.049,2.928,0Z" transform="translate(36.097 45.235) rotate(103)" fill="#fff"/>
  </g>
</svg>
