<svg id="expert_icon" data-name="expert icon" xmlns="http://www.w3.org/2000/svg" width="40.79" height="44.065" viewBox="0 0 40.79 44.065">
  <path id="Path_527" data-name="Path 527" d="M652.962,1238.637v6.938s-5.053.428-5.225,5.353,5.225,5.31,5.225,5.31v7.023s-1.986.111-2.112-.231a7.929,7.929,0,0,0-2.65-3.5c-1.969-1.58-4.776-.909-5.023-.978a11.5,11.5,0,0,1-1.779-3.3c.056-.372,1.864-2.369,1.779-4.553a10.538,10.538,0,0,0-1.7-4.511c-.127-.329,1.444-2.534,1.8-2.842s2.848.311,4.754-.814a7.438,7.438,0,0,0,2.955-3.726C651.077,1238.423,652.962,1238.338,652.962,1238.637Z" transform="translate(-632.687 -1238.379)" fill="#fff"/>
  <path id="Path_528" data-name="Path 528" d="M674.507,1238.341l.051,24.781s2.368.154,5.251-2.419,1.339-4.221,2.059-4.736,1.184.463,1.338-1.647.836-2.144,1.184-3.346c.265-.91-.229-2.072-1.184-1.544-1.956,1.081,2.419-6.229-.824-9.009S674.507,1238.341,674.507,1238.341Z" transform="translate(-652.424 -1238.262)" fill="#fff"/>
  <path id="Path_529" data-name="Path 529" d="M633.4,1305.783l3.676,12.644,1.169-7.868a10.407,10.407,0,0,1-1.436-2.187c.007-.387,1.436-1.56,1.436-1.56h3.279s1.377,1.2,1.345,1.56a13.65,13.65,0,0,1-1.345,2.188l1.29,8.031,4.2-12.807s10.574,3.237,11.577,3.839,2.008,11.845,2.008,11.845.335,1.071-1.673,1.071H621.652s-2.008.468-1.807-1.807.669-9.3,1.071-10.543S633.4,1305.783,633.4,1305.783Z" transform="translate(-619.831 -1278.513)" fill="#fff"/>
</svg>
