<svg xmlns="http://www.w3.org/2000/svg" width="49.413" height="47.354" viewBox="0 0 49.413 47.354">
  <g id="hub" transform="translate(-1171 -1341.427)">
    <path id="share-131964784996330922_0" d="M28.706,4a8.228,8.228,0,0,0-8.174,7.914c-.289.123-.575.252-1.121.517A20.352,20.352,0,0,0,8.118,30.765c0,.35-.016.741,0,1.159a8.212,8.212,0,0,0,7.463,14.6,20.261,20.261,0,0,0,26.25,0,8.225,8.225,0,0,0,7.4-14.671,10.818,10.818,0,0,0,.062-1.091A20.447,20.447,0,0,0,36.88,11.914,8.231,8.231,0,0,0,28.706,4Zm0,4.118a4.118,4.118,0,1,1-4.118,4.118A4.088,4.088,0,0,1,28.706,8.118Zm-7.268,7.914a8.239,8.239,0,0,0,7.268,4.439c3.15,0,7.268-4.439,7.268-4.439s9.2,8.31,9.2,14.733A8.268,8.268,0,0,0,36.942,39a8.086,8.086,0,0,0,1.674,4.89,16.348,16.348,0,0,1-19.819,0A8.091,8.091,0,0,0,20.471,39a8.268,8.268,0,0,0-8.235-8.235,16.34,16.34,0,0,1,9.2-14.733Zm-9.2,18.851A4.118,4.118,0,1,1,8.118,39,4.088,4.088,0,0,1,12.235,34.883Zm32.942,0A4.118,4.118,0,1,1,41.059,39,4.088,4.088,0,0,1,45.177,34.883Z" transform="translate(1167 1337.427)" fill="#fff"/>
    <path id="Path_918" data-name="Path 918" d="M0,4.125V2.584L10.606-2.549,21.547,2.584V4.125H19.156V10.8H2.457l-.081-6.68Z" transform="translate(1184.933 1362.272)" fill="#fff"/>
  </g>
</svg>
